# xmcd
#
# Track frame offsets: 
#        150
#        19406
#        37209
#        58778
#        74326
#        90707
#        106217
#        122350
#        146421
#        167347
#        190197
#        207989
#        224232
#        241140
#        259421
#        276533
#        295465
#        314331
#        339331
#
# Disc length: 4741 seconds
#
# Revision: 1
# Processed by: cddbd v1.5.2PL0 Copyright (c) Steve Scherf et al.
# Submitted via: ExactAudioCopy v0.99pb4
#
DISCID=31128313
DTITLE=Craig David - Greatest Hits [Deluxe Edition]
DYEAR=2008
DGENRE=R&B
TTITLE0=Fill Me In
TTITLE1=7 Days
TTITLE2=Rise and Fall (feat. Sting)
TTITLE3=Insomnia
TTITLE4=What's Your Flava
TTITLE5=Walking Away
TTITLE6=Where's Your Love (feat. Tinchy Stryder)
TTITLE7=You Don't Miss Your Water ('Til The Well Runs Dry)
TTITLE8=Rendezvous
TTITLE9=Spanish
TTITLE10=All The Way
TTITLE11=Just My Imagination
TTITLE12=World Filled With Love
TTITLE13=Don't Love You No More (I'm Sorry)
TTITLE14=6 Of 1 Thing
TTITLE15=Hidden Agenda
TTITLE16=This Is The Girl (With Kano)
TTITLE17=Rewind
TTITLE18=Hot Stuff (Let's Dance)
EXTD=
EXTT0=
EXTT1=
EXTT2=
EXTT3=
EXTT4=
EXTT5=
EXTT6=
EXTT7=
EXTT8=
EXTT9=
EXTT10=
EXTT11=
EXTT12=
EXTT13=
EXTT14=
EXTT15=
EXTT16=
EXTT17=
EXTT18=
PLAYORDER=
